<svg xmlns="http://www.w3.org/2000/svg" viewBox="0 0 200 230" width="200" height="230">
  <!-- Column capital - Doric style (simple, strong) -->
  <!-- Abacus (top square slab) -->
  <rect x="55" y="50" width="90" height="8" fill="#2c3e50" rx="1"/>
  
  <!-- Echinus (curved cushion) -->
  <path d="M 60 58 L 60 66 Q 100 70, 140 66 L 140 58 Z" 
        fill="#2c3e50"/>
  
  <!-- Light bulb (knowledge/insight) -->
  <circle cx="100" cy="65" r="6" fill="none" stroke="#f9f9f9" stroke-width="2"/>
  <path d="M 100 71 L 100 74" stroke="#f9f9f9" stroke-width="2"/>
  <line x1="97" y1="74" x2="103" y2="74" stroke="#f9f9f9" stroke-width="2"/>
  <!-- Light rays -->
  <line x1="92" y1="58" x2="89" y2="55" stroke="#2c3e50" stroke-width="1.5"/>
  <line x1="108" y1="58" x2="111" y2="55" stroke="#2c3e50" stroke-width="1.5"/>
  
  <!-- Necking band (transition) -->
  <rect x="65" y="70" width="70" height="4" fill="#34495e"/>
  
  <!-- Column shaft (with subtle entasis - slight bulge) -->
  <path d="M 70 74 Q 68 130, 70 210 L 130 210 Q 132 130, 130 74 Z" 
        fill="#2c3e50"/>
  
  <!-- Data bars (knowledge accumulation) - left to right, short to tall -->
  <rect x="75" y="124" width="8" height="76" fill="#aed581" rx="1"/>
  <rect x="85" y="114" width="8" height="86" fill="#9ccc65" rx="1"/>
  <rect x="95" y="104" width="8" height="96" fill="#8bc34a" rx="1"/>
  <rect x="105" y="94" width="8" height="106" fill="#7cb342" rx="1"/>
  <rect x="115" y="84" width="8" height="116" fill="#7cb342" rx="1"/>
  
  <!-- Base (stylobate) -->
  <rect x="60" y="210" width="80" height="8" fill="#2c3e50" rx="1"/>
  <rect x="50" y="218" width="100" height="10" fill="#2c3e50" rx="1"/>
</svg>
